<svg width="15" height="17" viewBox="0 0 15 17" fill="none" xmlns="http://www.w3.org/2000/svg">
<path d="M13.3929 2.125H11.7857V0.398438C11.7857 0.1784 11.6058 0 11.3839 0H10.0446C9.82276 0 9.64286 0.1784 9.64286 0.398438V2.125H5.35714V0.398438C5.35714 0.1784 5.17724 0 4.95536 0H3.61607C3.39419 0 3.21429 0.1784 3.21429 0.398438V2.125H1.60714C0.719531 2.125 0 2.83854 0 3.71875V15.4062C0 16.2865 0.719531 17 1.60714 17H13.3929C14.2805 17 15 16.2865 15 15.4062V3.71875C15 2.83854 14.2805 2.125 13.3929 2.125ZM13.192 15.4062H1.80804C1.75476 15.4062 1.70366 15.3853 1.66598 15.3479C1.62831 15.3105 1.60714 15.2599 1.60714 15.207V5.3125H13.3929V15.207C13.3929 15.2599 13.3717 15.3105 13.334 15.3479C13.2963 15.3853 13.2452 15.4062 13.192 15.4062ZM11.4225 8.74404L6.65766 13.4313C6.50012 13.5863 6.24573 13.5853 6.08943 13.429L3.57522 10.9156C3.41896 10.7594 3.41997 10.5071 3.5775 10.3521L4.33818 9.60384C4.49571 9.44888 4.75011 9.44987 4.90637 9.60613L6.38307 11.0824L10.102 7.42402C10.2595 7.26906 10.5139 7.27006 10.6702 7.42628L11.4248 8.18059C11.581 8.33681 11.58 8.58908 11.4225 8.74404Z" fill="#D8D8D8"/>
</svg>
