<svg width="60" height="66" viewBox="0 0 60 66" fill="none" xmlns="http://www.w3.org/2000/svg">
<path d="M37.5224 37.2789H34.2487C32.5819 37.2789 31.2261 38.6349 31.2261 40.3015V43.5752C31.2261 45.242 32.582 46.5978 34.2487 46.5978H37.5224C39.1891 46.5978 40.545 45.2419 40.545 43.5752V40.3015C40.5451 38.6349 39.1891 37.2789 37.5224 37.2789ZM37.967 43.5754C37.967 43.8204 37.7676 44.0198 37.5225 44.0198H34.2488C34.0037 44.0198 33.8043 43.8204 33.8043 43.5754V40.3017C33.8043 40.0566 34.0037 39.8572 34.2488 39.8572H37.5225C37.7676 39.8572 37.967 40.0566 37.967 40.3017V43.5754Z" fill="white"/>
<path d="M49.6054 37.2789H46.3317C44.6649 37.2789 43.3091 38.6349 43.3091 40.3015V43.5752C43.3091 45.242 44.665 46.5978 46.3317 46.5978H49.6054C51.2721 46.5978 52.628 45.2419 52.628 43.5752V40.3015C52.628 38.6349 51.2721 37.2789 49.6054 37.2789ZM50.0498 43.5754C50.0498 43.8204 49.8504 44.0198 49.6054 44.0198H46.3317C46.0866 44.0198 45.8872 43.8204 45.8872 43.5754V40.3017C45.8872 40.0566 46.0866 39.8572 46.3317 39.8572H49.6054C49.8504 39.8572 50.0498 40.0566 50.0498 40.3017V43.5754Z" fill="white"/>
<path d="M37.5224 25.5514H34.2487C32.5819 25.5514 31.2261 26.9074 31.2261 28.574V31.8477C31.2261 33.5143 32.582 34.8701 34.2487 34.8701H37.5224C39.1891 34.8701 40.545 33.5142 40.545 31.8477V28.574C40.5451 26.9072 39.1891 25.5514 37.5224 25.5514ZM37.967 31.8478C37.967 32.0927 37.7676 32.2922 37.5225 32.2922H34.2488C34.0037 32.2922 33.8043 32.0927 33.8043 31.8478V28.5741C33.8043 28.3291 34.0037 28.1296 34.2488 28.1296H37.5225C37.7676 28.1296 37.967 28.3291 37.967 28.5741V31.8478Z" fill="white"/>
<path d="M49.6054 25.5514H46.3317C44.6649 25.5514 43.3091 26.9074 43.3091 28.574V31.8477C43.3091 33.5143 44.665 34.8701 46.3317 34.8701H49.6054C51.2721 34.8701 52.628 33.5142 52.628 31.8477V28.574C52.628 26.9072 51.2721 25.5514 49.6054 25.5514ZM50.0498 31.8478C50.0498 32.0927 49.8504 32.2922 49.6054 32.2922H46.3317C46.0866 32.2922 45.8872 32.0927 45.8872 31.8478V28.5741C45.8872 28.3291 46.0866 28.1296 46.3317 28.1296H49.6054C49.8504 28.1296 50.0498 28.3291 50.0498 28.5741V31.8478Z" fill="white"/>
<path d="M25.4397 49.4546H22.166C20.4994 49.4546 19.1436 50.8106 19.1436 52.4772V55.7509C19.1436 57.4176 20.4995 58.7735 22.166 58.7735H25.4397C27.1065 58.7735 28.4623 57.4175 28.4623 55.7509V52.4772C28.4623 50.8106 27.1065 49.4546 25.4397 49.4546ZM25.8842 55.7509C25.8842 55.9959 25.6848 56.1954 25.4397 56.1954H22.166C21.9211 56.1954 21.7217 55.9959 21.7217 55.7509V52.4772C21.7217 52.2321 21.9211 52.0327 22.166 52.0327H25.4397C25.6848 52.0327 25.8842 52.2321 25.8842 52.4772V55.7509Z" fill="white"/>
<path d="M13.0125 49.4546H9.73877C8.07214 49.4546 6.71631 50.8106 6.71631 52.4772V55.7509C6.71631 57.4176 8.07227 58.7735 9.73877 58.7735H13.0125C14.6792 58.7735 16.0351 57.4175 16.0351 55.7509V52.4772C16.0351 50.8106 14.6791 49.4546 13.0125 49.4546ZM13.4569 55.7509C13.4569 55.9959 13.2575 56.1954 13.0125 56.1954H9.73877C9.49385 56.1954 9.29443 55.9959 9.29443 55.7509V52.4772C9.29443 52.2321 9.49385 52.0327 9.73877 52.0327H13.0125C13.2575 52.0327 13.4569 52.2321 13.4569 52.4772V55.7509Z" fill="white"/>
<path d="M37.5224 49.4546H34.2487C32.5819 49.4546 31.2261 50.8106 31.2261 52.4772V55.7509C31.2261 57.4176 32.582 58.7735 34.2487 58.7735H37.5224C39.1891 58.7735 40.545 57.4175 40.545 55.7509V52.4772C40.5451 50.8106 39.1891 49.4546 37.5224 49.4546ZM37.967 55.7509C37.967 55.9959 37.7676 56.1954 37.5225 56.1954H34.2488C34.0037 56.1954 33.8043 55.9959 33.8043 55.7509V52.4772C33.8043 52.2321 34.0037 52.0327 34.2488 52.0327H37.5225C37.7676 52.0327 37.967 52.2321 37.967 52.4772V55.7509Z" fill="white"/>
<path d="M49.6054 49.4546H46.3317C44.6649 49.4546 43.3091 50.8106 43.3091 52.4772V55.7509C43.3091 57.4176 44.665 58.7735 46.3317 58.7735H49.6054C51.2721 58.7735 52.628 57.4175 52.628 55.7509V52.4772C52.628 50.8106 51.2721 49.4546 49.6054 49.4546ZM50.0498 55.7509C50.0498 55.9959 49.8504 56.1954 49.6054 56.1954H46.3317C46.0866 56.1954 45.8872 55.9959 45.8872 55.7509V52.4772C45.8872 52.2321 46.0866 52.0327 46.3317 52.0327H49.6054C49.8504 52.0327 50.0498 52.2321 50.0498 52.4772V55.7509Z" fill="white"/>
<path d="M25.0159 25.5514H10.7415C8.84125 25.5514 7.29541 27.0972 7.29541 28.9974V43.152C7.29541 45.0522 8.84125 46.5981 10.7415 46.5981H25.0159C26.9161 46.5981 28.4619 45.0522 28.4619 43.152V28.9974C28.4619 27.0972 26.9161 25.5514 25.0159 25.5514V25.5514ZM25.8838 43.152C25.8838 43.6306 25.4944 44.0199 25.0159 44.0199H10.7415C10.2628 44.0199 9.87354 43.6305 9.87354 43.152V28.9974C9.87354 28.5188 10.263 28.1295 10.7415 28.1295H25.0159C25.4945 28.1295 25.8838 28.5189 25.8838 28.9974V43.152Z" fill="white"/>
<path d="M16.3705 20.5283C16.5826 21.0451 17.1316 21.3755 17.6878 21.3183C18.2169 21.2639 18.6673 20.8827 18.8061 20.3695C19.1049 19.2642 17.8563 18.3474 16.8876 18.9382C16.3544 19.2633 16.1302 19.9514 16.3705 20.5283Z" fill="white"/>
<path d="M59.28 10.7724C59.28 8.50846 57.4382 6.66652 55.1742 6.66652H48.4421V4.00589C48.4421 1.79695 46.6451 0 44.4362 0C42.2272 0 40.4303 1.79695 40.4303 4.00589V6.66664H33.6463V4.00589C33.6463 1.79695 31.8493 0 29.6403 0C27.4314 0 25.6344 1.79695 25.6344 4.00589V6.66664H18.8505V4.00589C18.8505 1.79695 17.0533 0 14.8445 0C12.6356 0 10.8386 1.79695 10.8386 4.00589V6.66664H4.10592C1.84194 6.66664 0 8.50846 0 10.7726L0.000644423 61.4C0.000644423 63.9363 2.0643 66 4.60079 66H54.6798C57.2165 66 59.2801 63.9363 59.2801 61.3999L59.28 10.7724ZM43.0084 4.00589C43.0084 3.21866 43.6489 2.57812 44.4362 2.57812C45.2234 2.57812 45.8639 3.21866 45.8639 4.00589V11.8523C45.8587 12.6621 45.2266 13.3549 44.3969 13.3312C43.6357 13.3097 43.0084 12.6697 43.0084 11.9054V4.00589ZM28.2125 4.00589C28.2125 3.21866 28.8531 2.57812 29.6403 2.57812C30.4277 2.57812 31.0682 3.21866 31.0682 4.00589V7.94565C31.0682 7.949 31.0677 7.95223 31.0677 7.95558V11.8406C31.0677 12.6362 30.4734 13.3235 29.6562 13.3324C28.8738 13.3432 28.2125 12.6881 28.2125 11.9054V4.00589ZM14.8445 2.57812C15.6318 2.57812 16.2724 3.21866 16.2724 4.00589V7.95571V11.8407C16.2724 12.6524 15.6483 13.3435 14.8193 13.332C14.0534 13.3181 13.4169 12.6754 13.4169 11.9059V7.95571C13.4169 7.95403 13.4167 7.95236 13.4167 7.95068V4.00589C13.4167 3.21866 14.0571 2.57812 14.8445 2.57812V2.57812ZM54.6798 63.4219H4.60079C3.48588 63.4219 2.57877 62.5149 2.57877 61.3999V21.3268C3.58179 21.3282 11.7394 21.3248 11.7394 21.3248C12.4913 21.3248 13.0938 20.659 13.0221 19.9102C12.9597 19.2585 12.3933 18.7467 11.7394 18.7467H2.57812V10.7726C2.57812 9.93016 3.26339 9.24477 4.10592 9.24477H10.8386V11.9055C10.8386 14.0982 12.6763 15.9273 14.8695 15.9108C17.0842 15.8935 18.8564 14.038 18.8505 11.8407V9.24477H25.6342V11.906C25.6342 14.144 27.5473 15.9933 29.7862 15.9094C31.9234 15.8342 33.6463 14.0481 33.6463 11.9055V9.24477H40.4296V11.906C40.4296 14.0822 42.237 15.8956 44.4123 15.9109C45.4817 15.9152 46.5183 15.4876 47.2733 14.7296C48.0401 13.9598 48.4427 12.9227 48.4427 11.8412V9.24477H55.1743C56.0166 9.24477 56.702 9.93004 56.702 10.7726V18.7467H23.1271C22.3856 18.7467 21.7846 19.3976 21.8419 20.1364C21.8986 20.8693 22.5211 21.3214 23.2192 21.3263C23.2192 21.3263 53.9626 21.3266 56.7021 21.3253V61.3999C56.702 62.5149 55.7947 63.4219 54.6798 63.4219V63.4219Z" fill="white"/>
<path d="M18.0628 30.6409H15.9961C15.2843 30.6409 14.707 31.2181 14.707 31.9299C14.707 32.6418 15.2843 33.219 15.9961 33.219H16.7738V40.2195C16.7738 40.9313 17.351 41.5086 18.0628 41.5086C18.7747 41.5086 19.3519 40.9313 19.3519 40.2195V31.9299C19.3519 31.2181 18.7748 30.6409 18.0628 30.6409Z" fill="#FF1E1E"/>
</svg>
