<svg width="22" height="13" viewBox="0 0 22 13" fill="none" xmlns="http://www.w3.org/2000/svg">
<path d="M20.597 7.46368C20.8899 7.17079 20.8899 6.69591 20.597 6.40302L15.824 1.63005C15.5311 1.33716 15.0563 1.33716 14.7634 1.63005C14.4705 1.92294 14.4705 2.39782 14.7634 2.69071L19.006 6.93335L14.7634 11.176C14.4705 11.4689 14.4705 11.9438 14.7634 12.2367C15.0563 12.5295 15.5311 12.5295 15.824 12.2367L20.597 7.46368ZM0 7.68335H20.0667V6.18335H0V7.68335Z" fill="black"/>
<path d="M21.5303 6.53033C21.8232 6.23744 21.8232 5.76256 21.5303 5.46967L16.7573 0.696699C16.4644 0.403806 15.9896 0.403806 15.6967 0.696699C15.4038 0.989592 15.4038 1.46447 15.6967 1.75736L19.9393 6L15.6967 10.2426C15.4038 10.5355 15.4038 11.0104 15.6967 11.3033C15.9896 11.5962 16.4644 11.5962 16.7573 11.3033L21.5303 6.53033ZM0.933319 6.75H21V5.25H0.933319V6.75Z" fill="white"/>
</svg>
