<svg width="83" height="83" viewBox="0 0 83 83" fill="none" xmlns="http://www.w3.org/2000/svg">
<path d="M20.0693 56.0075C20.0534 56.0164 18.4513 56.87 16.6162 56.87C14.7836 56.87 13.1904 56.0227 13.16 56.0063C12.5717 55.6846 11.8346 55.8993 11.5117 56.4863C11.1875 57.0746 11.4021 57.8142 11.9904 58.1384C12.0765 58.1859 14.1333 59.3023 16.6162 59.3023C19.0992 59.3023 21.1559 58.1859 21.242 58.1384C21.8303 57.8142 22.045 57.0746 21.7214 56.4863C21.3972 55.8986 20.6582 55.684 20.0693 56.0075Z" fill="black"/>
<path d="M15.5112 51.9517C15.5112 52.6229 14.9666 53.1675 14.2954 53.1675C13.6235 53.1675 13.0796 52.6229 13.0796 51.9517C13.0796 51.2798 13.6235 50.7358 14.2954 50.7358C14.9666 50.7358 15.5112 51.2798 15.5112 51.9517Z" fill="black"/>
<path d="M20.1528 51.9517C20.1528 52.6229 19.6089 53.1675 18.937 53.1675C18.2658 53.1675 17.7212 52.6229 17.7212 51.9517C17.7212 51.2798 18.2658 50.7358 18.937 50.7358C19.6089 50.7358 20.1528 51.2798 20.1528 51.9517Z" fill="black"/>
<path d="M79.3804 65.0686C79.0701 64.4734 78.3362 64.2422 77.7403 64.5525C77.1451 64.8634 76.9139 65.5974 77.2242 66.1926C78.1525 67.972 78.623 69.899 78.623 71.9209V71.9405C78.623 73.9409 76.9956 75.5684 74.9946 75.5684H57.4481C56.7281 75.5684 56.031 75.3531 55.442 74.9617C55.9562 74.072 56.252 73.0405 56.252 71.9405V71.9209C56.252 69.9408 55.8612 68.0512 55.1539 66.3224C57.2556 62.1734 61.5433 59.5195 66.2217 59.5195C69.1922 59.5195 72.0652 60.5853 74.3113 62.5205C74.8204 62.9587 75.5879 62.9017 76.0261 62.3925C76.4643 61.884 76.4073 61.1166 75.8988 60.6784C74.5792 59.5417 73.0784 58.6571 71.4725 58.0498C74.3968 56.271 76.3535 53.0535 76.3535 49.3877C76.3535 43.8006 71.8081 39.2559 66.2217 39.2559C60.6352 39.2559 56.0898 43.8006 56.0898 49.3877C56.0898 53.0548 58.0478 56.2729 60.974 58.0517C58.0681 59.1542 55.5484 61.1539 53.8171 63.7882C52.1106 61.1951 49.6137 59.1668 46.671 58.0491C49.5947 56.2697 51.5508 53.0529 51.5508 49.3877C51.5508 43.8006 47.006 39.2559 41.4189 39.2559C35.8325 39.2559 31.2871 43.8006 31.2871 49.3877C31.2871 53.0529 33.2438 56.2697 36.1675 58.0491C33.2242 59.1668 30.7273 61.1957 29.0201 63.7888C28.466 62.9435 27.8277 62.1544 27.1052 61.4319C25.5943 59.921 23.8136 58.7799 21.8734 58.046C24.7939 56.2666 26.748 53.051 26.748 49.3877C26.748 43.8006 22.2033 39.2559 16.6162 39.2559C11.0298 39.2559 6.48438 43.8006 6.48438 49.3877C6.48438 53.0516 8.43982 56.2678 11.3616 58.0472C9.47517 58.7609 7.73819 59.8589 6.25578 61.3059C5.77515 61.7751 5.76565 62.5452 6.23488 63.0258C6.70411 63.5058 7.47413 63.5153 7.95412 63.046C10.2838 60.7721 13.3601 59.5195 16.6162 59.5195C19.9293 59.5195 23.0436 60.8094 25.3859 63.1512C26.3206 64.0858 27.0913 65.1509 27.684 66.3218C26.9766 68.0505 26.5859 69.9408 26.5859 71.9209V71.9405C26.5859 73.0405 26.8817 74.072 27.3959 74.9617C26.8069 75.3531 26.1097 75.5684 25.3897 75.5684H7.84267C5.84227 75.5684 4.21484 73.9409 4.21484 71.9405V71.9209C4.21484 70.2112 4.55616 68.5565 5.22866 67.0013C5.49525 66.3851 5.21156 65.6696 4.59542 65.403C3.97865 65.1364 3.26372 65.4201 2.99712 66.0362C2.19164 67.8979 1.7832 69.8774 1.7832 71.9209V71.9405C1.7832 75.2815 4.5017 78 7.84267 78H25.3897C26.7082 78 27.9791 77.5688 29.0182 76.7911C30.0301 77.5498 31.2858 78 32.6454 78H50.1925C51.552 78 52.8078 77.5504 53.8197 76.7911C54.8588 77.5688 56.1297 78 57.4481 78H74.9952C78.3362 78 81.0547 75.2815 81.0547 71.9405V71.9209C81.0547 69.5374 80.4759 67.1678 79.3804 65.0686ZM58.5215 49.3877C58.5215 45.1418 61.9758 41.6875 66.2217 41.6875C70.4676 41.6875 73.9219 45.1418 73.9219 49.3877C73.9219 53.6336 70.4676 57.0879 66.2217 57.0879C61.9758 57.0879 58.5215 53.6336 58.5215 49.3877ZM8.91602 49.3877C8.91602 45.1418 12.3703 41.6875 16.6162 41.6875C20.8621 41.6875 24.3164 45.1418 24.3164 49.3877C24.3164 53.6336 20.8621 57.0879 16.6162 57.0879C12.3703 57.0879 8.91602 53.6336 8.91602 49.3877ZM33.7188 49.3877C33.7188 45.1418 37.1731 41.6875 41.4189 41.6875C45.6648 41.6875 49.1191 45.1418 49.1191 49.3877C49.1191 53.6336 45.6648 57.0879 41.4189 57.0879C37.1731 57.0879 33.7188 53.6336 33.7188 49.3877ZM32.6454 75.5684C30.645 75.5684 29.0176 73.9409 29.0176 71.9405V71.9209C29.0176 65.0825 34.5806 59.5195 41.4189 59.5195C48.2573 59.5195 53.8203 65.0825 53.8203 71.9209V71.9405C53.8203 73.9409 52.1929 75.5684 50.1925 75.5684H32.6454Z" fill="black"/>
<path d="M69.6748 56.0075C69.6589 56.0164 68.0568 56.87 66.2217 56.87C64.3891 56.87 62.7959 56.0227 62.7655 56.0063C62.1772 55.6846 61.4401 55.8993 61.1171 56.4863C60.7929 57.0746 61.0076 57.8142 61.5959 58.1384C61.682 58.1859 63.7388 59.3023 66.2217 59.3023C68.7046 59.3023 70.7614 58.1859 70.8475 58.1384C71.4358 57.8142 71.6505 57.0746 71.3269 56.4863C71.0027 55.8986 70.263 55.684 69.6748 56.0075Z" fill="black"/>
<path d="M65.1167 51.9517C65.1167 52.6229 64.5721 53.1675 63.9009 53.1675C63.229 53.1675 62.6851 52.6229 62.6851 51.9517C62.6851 51.2798 63.229 50.7358 63.9009 50.7358C64.5721 50.7358 65.1167 51.2798 65.1167 51.9517Z" fill="black"/>
<path d="M69.7583 51.9517C69.7583 52.6229 69.2143 53.1675 68.5425 53.1675C67.8712 53.1675 67.3267 52.6229 67.3267 51.9517C67.3267 51.2798 67.8712 50.7358 68.5425 50.7358C69.2143 50.7358 69.7583 51.2798 69.7583 51.9517Z" fill="black"/>
<path d="M44.872 56.0075C44.8562 56.0164 43.2541 56.87 41.419 56.87C39.5864 56.87 37.9931 56.0227 37.9627 56.0063C37.3751 55.6846 36.6374 55.8993 36.3144 56.4863C35.9902 57.0746 36.2049 57.8142 36.7931 58.1384C36.8793 58.1859 38.936 59.3023 41.419 59.3023C43.9019 59.3023 45.9586 58.1859 46.0448 58.1384C46.633 57.8142 46.8477 57.0746 46.5241 56.4863C46.1999 55.8986 45.4609 55.684 44.872 56.0075Z" fill="black"/>
<path d="M40.314 51.9517C40.314 52.6229 39.7694 53.1675 39.0981 53.1675C38.4263 53.1675 37.8823 52.6229 37.8823 51.9517C37.8823 51.2798 38.4263 50.7358 39.0981 50.7358C39.7694 50.7358 40.314 51.2798 40.314 51.9517Z" fill="black"/>
<path d="M44.9556 51.9517C44.9556 52.6229 44.4116 53.1675 43.7397 53.1675C43.0685 53.1675 42.5239 52.6229 42.5239 51.9517C42.5239 51.2798 43.0685 50.7358 43.7397 50.7358C44.4116 50.7358 44.9556 51.2798 44.9556 51.9517Z" fill="black"/>
<path d="M49.5244 17.0633H66.708C67.3792 17.0633 67.9238 16.5187 67.9238 15.8475C67.9238 15.1756 67.3792 14.6317 66.708 14.6317H49.5244C48.8532 14.6317 48.3086 15.1756 48.3086 15.8475C48.3086 16.5187 48.8532 17.0633 49.5244 17.0633Z" fill="#FF1E1E"/>
<path d="M49.5244 21.9266H66.708C67.3792 21.9266 67.9238 21.382 67.9238 20.7108C67.9238 20.0389 67.3792 19.4949 66.708 19.4949H49.5244C48.8532 19.4949 48.3086 20.0389 48.3086 20.7108C48.3086 21.382 48.8532 21.9266 49.5244 21.9266Z" fill="#FF1E1E"/>
<path d="M49.5244 26.7899H66.708C67.3792 26.7899 67.9238 26.2453 67.9238 25.574C67.9238 24.9022 67.3792 24.3582 66.708 24.3582H49.5244C48.8532 24.3582 48.3086 24.9022 48.3086 25.574C48.3086 26.2453 48.8532 26.7899 49.5244 26.7899Z" fill="#FF1E1E"/>
<path d="M13.759 33.7599H19.5817C19.9578 36.9248 21.0863 39.2393 22.9448 40.6483C24.4848 41.816 26.2503 42.1472 27.7574 42.1472C28.6953 42.1472 29.5343 42.0186 30.1555 41.8837C30.8071 41.7425 31.2706 41.1574 31.2586 40.4912C31.2472 39.8251 30.7622 39.2558 30.1055 39.138C29.3659 39.0057 28.8612 38.6865 28.518 38.1324C27.7935 36.9628 27.9436 35.0144 28.176 33.7599H35.6837C37.0078 33.7599 38.2597 33.4477 39.3717 32.8968C40.5831 36.0484 43.6676 38.2591 47.1542 38.2591H54.6613C54.8943 39.5148 55.0444 41.4633 54.3193 42.6322C53.9767 43.1857 53.472 43.5055 52.7311 43.6378C52.0764 43.7556 51.5926 44.3236 51.5793 44.9885C51.566 45.6636 52.0181 46.2373 52.6824 46.3842C53.3036 46.5191 54.142 46.6476 55.0798 46.6476C56.5876 46.6476 58.3537 46.3158 59.8943 45.1475C61.7523 43.7379 62.8801 41.424 63.2556 38.2591H69.0782C73.6705 38.2591 77.4072 34.5255 77.4072 29.9364V12.8231C77.4072 8.23338 73.6705 4.50043 69.0782 4.50043H47.1542C45.8713 4.50043 44.606 4.80059 43.4662 5.36164C42.2688 2.2309 39.233 0 35.6843 0H20.6689C19.9977 0 19.4531 0.543953 19.4531 1.21582C19.4531 1.88769 19.9977 2.43164 20.6689 2.43164H35.6843C38.936 2.43164 41.5811 5.07415 41.5811 8.32267V25.4372C41.5811 28.6858 38.936 31.3283 35.6843 31.3283H27.2116C26.6727 31.3283 26.1984 31.6829 26.0458 32.1996C25.9115 32.6536 24.7837 36.7133 26.4473 39.4071C26.4922 39.48 26.5391 39.5515 26.5878 39.6212C25.8419 39.4926 25.0852 39.2191 24.4146 38.7106C22.9302 37.5853 22.0874 35.4861 21.9088 32.4719C21.8702 31.8298 21.3383 31.3283 20.6949 31.3283H13.759C10.5073 31.3283 7.8623 28.6858 7.8623 25.4372V8.32267C7.8623 5.07415 10.5073 2.43164 13.759 2.43164H15.4814C16.1527 2.43164 16.6973 1.88769 16.6973 1.21582C16.6973 0.543953 16.1527 0 15.4814 0H13.759C9.16678 0 5.43066 3.73358 5.43066 8.32267V25.4372C5.43066 30.0263 9.16678 33.7599 13.759 33.7599ZM44.0127 25.4372V8.32267C44.0127 8.16246 44.007 8.00352 43.9981 7.84584C44.9385 7.2468 46.0175 6.93208 47.1542 6.93208H69.0782C72.3299 6.93208 74.9756 9.57458 74.9756 12.8231V29.937C74.9756 33.1849 72.3299 35.8281 69.0782 35.8281H62.143C61.4996 35.8281 60.9677 36.3296 60.9291 36.9717C60.7505 39.9859 59.9083 42.0851 58.4246 43.2104C57.7534 43.7195 56.996 43.9931 56.2494 44.1216C56.2982 44.0513 56.345 43.9804 56.39 43.9069C58.0542 41.2131 56.9264 37.1534 56.7921 36.6994C56.6395 36.1827 56.1652 35.8281 55.6263 35.8281H47.1542C44.4693 35.8281 42.1218 33.9784 41.4506 31.434C43.028 29.9187 44.0127 27.7916 44.0127 25.4372Z" fill="black"/>
<path d="M13.4551 14.4923C13.4551 17.0455 14.7817 22.0304 23.6654 26.7297C23.996 26.9045 24.3588 26.9918 24.7217 26.9918C25.0845 26.9918 25.4474 26.9045 25.7779 26.7297C34.6616 22.0304 35.9883 17.0455 35.9883 14.4923C35.9883 10.5928 33.247 7.53809 29.7471 7.53809C27.3376 7.53809 25.6462 8.67412 24.7217 9.51949C23.7978 8.67475 22.1064 7.53809 19.6963 7.53809C16.1964 7.53809 13.4551 10.5928 13.4551 14.4923ZM19.6963 9.96973C21.4111 9.96973 22.5921 10.8056 23.2804 11.506C23.6559 11.8891 24.1815 12.1082 24.7217 12.1082C25.2618 12.1082 25.7874 11.8891 26.1629 11.5066C26.8513 10.8056 28.0323 9.96973 29.7471 9.96973C32.2218 9.96973 33.5566 12.3 33.5566 14.4923C33.5566 17.8903 30.3379 21.5485 24.7217 24.5374C19.1055 21.5485 15.8867 17.8903 15.8867 14.4923C15.8867 12.3 17.2216 9.96973 19.6963 9.96973Z" fill="#FF1E1E"/>
</svg>
