<svg width="69" height="69" viewBox="0 0 69 69" fill="none" xmlns="http://www.w3.org/2000/svg">
<g clip-path="url(#clip0)">
<path d="M60 54H62.1562V56.1562H60V54Z" fill="white"/>
<path d="M7.54688 16H9.70312V18.1562H7.54688V16Z" fill="white"/>
<path d="M7.54688 20H9.70312V22.1562H7.54688V20Z" fill="white"/>
<path d="M7.54688 25H9.70312V27.1562H7.54688V25Z" fill="white"/>
<path d="M7.54688 29H9.70312V31.1562H7.54688V29Z" fill="white"/>
<path d="M7.54688 33H9.70312V35.1562H7.54688V33Z" fill="white"/>
<path d="M7.54688 37H9.70312V39.1562H7.54688V37Z" fill="white"/>
<path d="M7.54688 41H9.70312V43.1562H7.54688V41Z" fill="white"/>
<path d="M7.54688 46H9.70312V48.1562H7.54688V46Z" fill="white"/>
<path d="M7.54688 50H9.70312V52.1562H7.54688V50Z" fill="white"/>
<path d="M7.54688 54H9.70312V56.1562H7.54688V54Z" fill="white"/>
<path d="M60 16H62.1562V18.1562H60V16Z" fill="white"/>
<path d="M60 20H62.1562V22.1562H60V20Z" fill="white"/>
<path d="M60 25H62.1562V27.1562H60V25Z" fill="white"/>
<path d="M60 29H62.1562V31.1562H60V29Z" fill="white"/>
<path d="M60 33H62.1562V35.1562H60V33Z" fill="white"/>
<path d="M60 37H62.1562V39.1562H60V37Z" fill="white"/>
<path d="M60 41H62.1562V43.1562H60V41Z" fill="white"/>
<path d="M60 46H62.1562V48.1562H60V46Z" fill="white"/>
<path d="M65.7656 60.375V12.9375C65.7656 12.6516 65.652 12.3773 65.4499 12.1751C65.2477 11.973 64.9734 11.8594 64.6875 11.8594H57.1406V3.23438C57.1406 2.94844 57.027 2.67421 56.8249 2.47203C56.6227 2.26984 56.3484 2.15625 56.0625 2.15625H12.9375C12.6516 2.15625 12.3773 2.26984 12.1751 2.47203C11.973 2.67421 11.8594 2.94844 11.8594 3.23438V11.8594H4.3125C4.02656 11.8594 3.75234 11.973 3.55015 12.1751C3.34796 12.3773 3.23438 12.6516 3.23438 12.9375V60.375C2.94844 60.375 2.67421 60.4886 2.47203 60.6908C2.26984 60.893 2.15625 61.1672 2.15625 61.4531V65.7656C2.15625 66.0516 2.26984 66.3258 2.47203 66.528C2.67421 66.7302 2.94844 66.8438 3.23438 66.8438H65.7656C66.0516 66.8438 66.3258 66.7302 66.528 66.528C66.7302 66.3258 66.8438 66.0516 66.8438 65.7656V61.4531C66.8438 61.1672 66.7302 60.893 66.528 60.6908C66.3258 60.4886 66.0516 60.375 65.7656 60.375ZM11.8594 64.6875H4.3125V62.5312H11.8594V64.6875ZM11.8594 60.375H5.39062V14.0156H11.8594V60.375ZM33.4219 64.6875H28.0312V51.75H33.4219V64.6875ZM25.875 49.5938C25.875 47.3063 26.7837 45.1125 28.4012 43.495C30.0187 41.8775 32.2125 40.9688 34.5 40.9688C36.7875 40.9688 38.9813 41.8775 40.5988 43.495C42.2163 45.1125 43.125 47.3063 43.125 49.5938H25.875ZM40.9688 64.6875H35.5781V51.75H40.9688V64.6875ZM54.9844 64.6875H43.125V51.75H44.2031C44.4891 51.75 44.7633 51.6364 44.9655 51.4342C45.1677 51.232 45.2812 50.9578 45.2812 50.6719V49.5938C45.2812 46.7344 44.1454 43.9921 42.1235 41.9703C40.1016 39.9484 37.3594 38.8125 34.5 38.8125C31.6406 38.8125 28.8984 39.9484 26.8765 41.9703C24.8546 43.9921 23.7188 46.7344 23.7188 49.5938V50.6719C23.7188 50.9578 23.8323 51.232 24.0345 51.4342C24.2367 51.6364 24.5109 51.75 24.7969 51.75H25.875V64.6875H14.0156V4.3125H54.9844V64.6875ZM57.1406 14.0156H63.6094V60.375H57.1406V14.0156ZM64.6875 64.6875H57.1406V62.5312H64.6875V64.6875Z" fill="white"/>
<path d="M51.75 17.25V12.9375C51.75 11.7938 51.2956 10.6969 50.4869 9.8881C49.6781 9.07935 48.5812 8.625 47.4375 8.625C46.2938 8.625 45.1969 9.07935 44.3881 9.8881C43.5794 10.6969 43.125 11.7938 43.125 12.9375V17.25H42.0469V19.4062H52.8281V17.25H51.75ZM49.5938 17.25H45.2812V12.9375C45.2812 12.3656 45.5084 11.8172 45.9128 11.4128C46.3172 11.0084 46.8656 10.7812 47.4375 10.7812C48.0094 10.7812 48.5578 11.0084 48.9622 11.4128C49.3666 11.8172 49.5938 12.3656 49.5938 12.9375V17.25Z" fill="white"/>
<path d="M51.75 32.3438V28.0312C51.75 26.8875 51.2956 25.7906 50.4869 24.9819C49.6781 24.1731 48.5812 23.7188 47.4375 23.7188C46.2938 23.7188 45.1969 24.1731 44.3881 24.9819C43.5794 25.7906 43.125 26.8875 43.125 28.0312V32.3438H42.0469V34.5H52.8281V32.3438H51.75ZM49.5938 32.3438H45.2812V28.0312C45.2812 27.4594 45.5084 26.9109 45.9128 26.5066C46.3172 26.1022 46.8656 25.875 47.4375 25.875C48.0094 25.875 48.5578 26.1022 48.9622 26.5066C49.3666 26.9109 49.5938 27.4594 49.5938 28.0312V32.3438Z" fill="white"/>
<path d="M38.8125 32.3438V28.0312C38.8125 26.8875 38.3581 25.7906 37.5494 24.9819C36.7406 24.1731 35.6437 23.7188 34.5 23.7188C33.3563 23.7188 32.2594 24.1731 31.4506 24.9819C30.6419 25.7906 30.1875 26.8875 30.1875 28.0312V32.3438H29.1094V34.5H39.8906V32.3438H38.8125ZM36.6562 32.3438H32.3438V28.0312C32.3438 27.4594 32.5709 26.9109 32.9753 26.5066C33.3797 26.1022 33.9281 25.875 34.5 25.875C35.0719 25.875 35.6203 26.1022 36.0247 26.5066C36.4291 26.9109 36.6562 27.4594 36.6562 28.0312V32.3438Z" fill="white"/>
<path d="M25.875 32.3438V28.0312C25.875 26.8875 25.4206 25.7906 24.6119 24.9819C23.8031 24.1731 22.7062 23.7188 21.5625 23.7188C20.4188 23.7188 19.3219 24.1731 18.5131 24.9819C17.7044 25.7906 17.25 26.8875 17.25 28.0312V32.3438H16.1719V34.5H26.9531V32.3438H25.875ZM23.7188 32.3438H19.4062V28.0312C19.4062 27.4594 19.6334 26.9109 20.0378 26.5066C20.4422 26.1022 20.9906 25.875 21.5625 25.875C22.1344 25.875 22.6828 26.1022 23.0872 26.5066C23.4916 26.9109 23.7188 27.4594 23.7188 28.0312V32.3438Z" fill="white"/>
<path d="M38.8125 17.25V12.9375C38.8125 11.7938 38.3581 10.6969 37.5494 9.8881C36.7406 9.07935 35.6437 8.625 34.5 8.625C33.3563 8.625 32.2594 9.07935 31.4506 9.8881C30.6419 10.6969 30.1875 11.7938 30.1875 12.9375V17.25H29.1094V19.4062H39.8906V17.25H38.8125ZM36.6562 17.25H32.3438V12.9375C32.3438 12.3656 32.5709 11.8172 32.9753 11.4128C33.3797 11.0084 33.9281 10.7812 34.5 10.7812C35.0719 10.7812 35.6203 11.0084 36.0247 11.4128C36.4291 11.8172 36.6562 12.3656 36.6562 12.9375V17.25Z" fill="white"/>
<path d="M25.875 17.25V12.9375C25.875 11.7938 25.4206 10.6969 24.6119 9.8881C23.8031 9.07935 22.7062 8.625 21.5625 8.625C20.4188 8.625 19.3219 9.07935 18.5131 9.8881C17.7044 10.6969 17.25 11.7938 17.25 12.9375V17.25H16.1719V19.4062H26.9531V17.25H25.875ZM23.7188 17.25H19.4062V12.9375C19.4062 12.3656 19.6334 11.8172 20.0378 11.4128C20.4422 11.0084 20.9906 10.7812 21.5625 10.7812C22.1344 10.7812 22.6828 11.0084 23.0872 11.4128C23.4916 11.8172 23.7188 12.3656 23.7188 12.9375V17.25Z" fill="white"/>
<path d="M59.2969 50.6719H61.4531V52.8281H59.2969V50.6719Z" fill="white"/>
<path d="M59.2969 54.9844H61.4531V57.1406H59.2969V54.9844Z" fill="white"/>
</g>
<defs>
<clipPath id="clip0">
<rect width="69" height="69" fill="white"/>
</clipPath>
</defs>
</svg>
