<svg width="56" height="56" viewBox="0 0 56 56" fill="none" xmlns="http://www.w3.org/2000/svg">
<path d="M54.2812 38.875V33.4375C54.2791 32.7171 53.992 32.0268 53.4826 31.5174C52.9732 31.008 52.2829 30.7209 51.5625 30.7188H33.1838C33.0264 30.4441 32.7995 30.2157 32.5259 30.0566C32.2523 29.8975 31.9415 29.8133 31.625 29.8125H22.5625C22.0822 29.8139 21.6221 30.0054 21.2825 30.345C20.9429 30.6846 20.7514 31.1447 20.75 31.625V32.5312H15.7113C16.0409 31.984 16.2163 31.3576 16.2188 30.7188C16.2188 29.7573 15.8368 28.8353 15.157 28.1555C14.4772 27.4757 13.5552 27.0938 12.5938 27.0938H6.25V16.2188C6.25 15.9784 6.15452 15.7479 5.98457 15.5779C5.81461 15.408 5.5841 15.3125 5.34375 15.3125H1.71875C1.4784 15.3125 1.24789 15.408 1.07793 15.5779C0.90798 15.7479 0.8125 15.9784 0.8125 16.2188V53.375C0.8125 53.6154 0.90798 53.8459 1.07793 54.0158C1.24789 54.1858 1.4784 54.2812 1.71875 54.2812H5.34375C5.5841 54.2812 5.81461 54.1858 5.98457 54.0158C6.15452 53.8459 6.25 53.6154 6.25 53.375V46.125H49.75V54.2812C49.75 54.5216 49.8455 54.7521 50.0154 54.9221C50.1854 55.092 50.4159 55.1875 50.6562 55.1875H54.2812C54.5216 55.1875 54.7521 55.092 54.9221 54.9221C55.092 54.7521 55.1875 54.5216 55.1875 54.2812V39.7812C55.1875 39.5409 55.092 39.3104 54.9221 39.1404C54.7521 38.9705 54.5216 38.875 54.2812 38.875ZM4.4375 52.4688H2.625V17.125H4.4375V52.4688ZM33.4375 32.5312H51.5625C51.8029 32.5312 52.0334 32.6267 52.2033 32.7967C52.3733 32.9666 52.4688 33.1971 52.4688 33.4375V38.875H33.4375V32.5312ZM22.5625 31.625H31.625V38.875H22.5625V31.625ZM6.25 28.9062H12.5938C13.0745 28.9062 13.5355 29.0972 13.8754 29.4371C14.2153 29.777 14.4062 30.238 14.4062 30.7188C14.4062 31.1995 14.2153 31.6605 13.8754 32.0004C13.5355 32.3403 13.0745 32.5312 12.5938 32.5312H6.25V28.9062ZM6.25 34.3438H20.75V38.875H6.25V34.3438ZM53.375 53.375H51.5625V46.125H53.375V53.375ZM53.375 44.3125H6.25V40.6875H53.375V44.3125Z" fill="black"/>
<path d="M43.4062 0.8125H12.5938C11.8734 0.814652 11.1831 1.10178 10.6737 1.61118C10.1643 2.12058 9.87715 2.81085 9.875 3.53125V11.6875C9.87715 12.4079 10.1643 13.0982 10.6737 13.6076C11.1831 14.117 11.8734 14.4041 12.5938 14.4062H43.4062C44.1266 14.4041 44.8169 14.117 45.3263 13.6076C45.8357 13.0982 46.1228 12.4079 46.125 11.6875V3.53125C46.1228 2.81085 45.8357 2.12058 45.3263 1.61118C44.8169 1.10178 44.1266 0.814652 43.4062 0.8125ZM40.6875 12.5938H15.3125V10.7812H40.6875V12.5938ZM44.3125 11.6875C44.3125 11.9279 44.217 12.1584 44.0471 12.3283C43.8771 12.4983 43.6466 12.5938 43.4062 12.5938H42.5V10.7812C42.4986 10.301 42.3071 9.8408 41.9675 9.5012C41.6279 9.1616 41.1678 8.97018 40.6875 8.96875H15.3125C14.8322 8.97018 14.3721 9.1616 14.0325 9.5012C13.6929 9.8408 13.5014 10.301 13.5 10.7812V12.5938H12.5938C12.3534 12.5938 12.1229 12.4983 11.9529 12.3283C11.783 12.1584 11.6875 11.9279 11.6875 11.6875V3.53125C11.6875 3.2909 11.783 3.06039 11.9529 2.89043C12.1229 2.72048 12.3534 2.625 12.5938 2.625H43.4062C43.6466 2.625 43.8771 2.72048 44.0471 2.89043C44.217 3.06039 44.3125 3.2909 44.3125 3.53125V11.6875Z" fill="black"/>
<path d="M27.0938 16.2188H28.9062V18.0312H27.0938V16.2188Z" fill="black"/>
<path d="M27.0938 19.8438H28.9062V21.6562H27.0938V19.8438Z" fill="black"/>
<path d="M21.6562 16.2188H23.4688V18.0312H21.6562V16.2188Z" fill="black"/>
<path d="M21.6562 19.8438H23.4688V21.6562H21.6562V19.8438Z" fill="black"/>
<path d="M16.2188 16.2188H18.0312V18.0312H16.2188V16.2188Z" fill="black"/>
<path d="M16.2188 19.8438H18.0312V21.6562H16.2188V19.8438Z" fill="black"/>
<path d="M37.9688 16.2188H39.7812V18.0312H37.9688V16.2188Z" fill="black"/>
<path d="M37.9688 19.8438H39.7812V21.6562H37.9688V19.8438Z" fill="black"/>
<path d="M32.5312 16.2188H34.3438V18.0312H32.5312V16.2188Z" fill="black"/>
<path d="M32.5312 19.8438H34.3438V21.6562H32.5312V19.8438Z" fill="black"/>
</svg>
