<svg width="56" height="56" viewBox="0 0 56 56" fill="none" xmlns="http://www.w3.org/2000/svg">
<g clip-path="url(#clip0)">
<path d="M24.1448 16.1747C23.7264 16.1733 23.3194 16.0384 22.9826 15.7901C22.2817 15.2924 21.99 14.3941 22.2648 13.5797L23.3121 10.359C23.3267 10.3139 23.3108 10.2642 23.272 10.2364L20.5298 8.2439C19.8348 7.74122 19.5436 6.84751 19.8084 6.03173C20.0732 5.21596 20.8343 4.66406 21.692 4.66542H25.0809C25.1287 4.66588 25.1711 4.63534 25.1852 4.58977L26.2334 1.36495C26.4987 0.550995 27.2575 3.8147e-06 28.1134 3.8147e-06C28.9693 3.8147e-06 29.7281 0.550995 29.9933 1.36495L31.0415 4.58886C31.0552 4.63489 31.098 4.66588 31.1459 4.66542H34.5348C35.3911 4.66542 36.1499 5.21687 36.4142 6.03128C36.679 6.84569 36.3892 7.73757 35.6969 8.24117L32.9547 10.2337C32.916 10.2619 32.9 10.3116 32.9146 10.3572L33.9619 13.5797C34.2262 14.3941 33.9364 15.2865 33.2436 15.7896C32.5509 16.2932 31.613 16.2932 30.9198 15.7901L28.1776 13.7985C28.1393 13.7693 28.0865 13.7693 28.0482 13.7985L25.3069 15.7901C24.9701 16.0384 24.5632 16.1729 24.1448 16.1747ZM21.692 6.53214C21.6423 6.5253 21.5958 6.55903 21.5872 6.6087C21.5662 6.65337 21.5835 6.70714 21.6277 6.73084L24.3699 8.7238C25.0636 9.22602 25.3534 10.1188 25.0873 10.9328L24.0404 14.1567C24.0258 14.2018 24.0418 14.2515 24.0801 14.2793C24.1188 14.3071 24.1708 14.3075 24.209 14.2797L26.9512 12.2881C27.644 11.7832 28.5832 11.7832 29.2755 12.2881L32.0177 14.2788C32.0564 14.3066 32.1084 14.3062 32.1467 14.2784C32.185 14.2506 32.2009 14.2009 32.1868 14.1558L31.1395 10.9319C30.8729 10.1175 31.1636 9.22466 31.8582 8.72288L34.5995 6.72993C34.6432 6.70623 34.661 6.65245 34.6396 6.60779C34.6305 6.55857 34.5844 6.5253 34.5348 6.53214H31.1459C30.2886 6.53396 29.5284 5.9816 29.265 5.16583L28.2177 1.94283C28.1981 1.8813 28.0313 1.8813 28.009 1.94283L26.9617 5.16674C26.6978 5.98206 25.9377 6.53351 25.0809 6.53214H21.692Z" fill="black"/>
<path d="M43.7454 20.8415C43.327 20.8401 42.92 20.7052 42.5832 20.4568C41.8823 19.9592 41.5906 19.0609 41.8654 18.2465L42.9127 15.0258C42.9273 14.9807 42.9114 14.931 42.8726 14.9032L40.1304 12.9107C39.4354 12.408 39.1442 11.5143 39.409 10.6985C39.6738 9.88274 40.4349 9.33083 41.2926 9.3322H44.6814C44.7293 9.33266 44.7717 9.30212 44.7858 9.25655L45.834 6.03173C46.0993 5.21777 46.8581 4.66678 47.7139 4.66678C48.5698 4.66678 49.3286 5.21777 49.5939 6.03173L50.6421 9.25564C50.6557 9.30167 50.6986 9.33266 50.7464 9.3322H54.1353C54.9917 9.3322 55.7505 9.88365 56.0148 10.6981C56.2796 11.5125 55.9897 12.4044 55.2975 12.9079L52.5553 14.9004C52.5165 14.9287 52.5006 14.9784 52.5152 15.0239L53.5625 18.2465C53.8268 19.0609 53.5369 19.9532 52.8442 20.4564C52.1515 20.96 51.2136 20.96 50.5204 20.4568L47.7782 18.4652C47.7399 18.4361 47.6871 18.4361 47.6488 18.4652L44.9075 20.4568C44.5707 20.7052 44.1637 20.8397 43.7454 20.8415ZM41.2926 11.1989C41.2429 11.1921 41.1964 11.2258 41.1877 11.2755C41.1668 11.3201 41.1841 11.3739 41.2283 11.3976L43.9705 13.3906C44.6641 13.8928 44.954 14.7856 44.6878 15.5995L43.641 18.8235C43.6264 18.8686 43.6424 18.9183 43.6806 18.9461C43.7194 18.9739 43.7713 18.9743 43.8096 18.9465L46.5518 16.9549C47.2441 16.4495 48.1838 16.4495 48.8761 16.9549L51.6183 18.9456C51.657 18.9734 51.709 18.9729 51.7472 18.9451C51.7855 18.9173 51.8015 18.8677 51.7873 18.8225L50.7401 15.5986C50.4735 14.7842 50.7642 13.8914 51.4588 13.3897L54.2 11.3967C54.2438 11.373 54.2616 11.3192 54.2401 11.2746C54.231 11.2253 54.185 11.1921 54.1353 11.1989H50.7464C49.8892 11.2007 49.129 10.6484 48.8656 9.8326L47.8183 6.60961C47.7987 6.54808 47.6319 6.54808 47.6096 6.60961L46.5623 9.83352C46.2984 10.6488 45.5382 11.2003 44.6814 11.1989H41.2926Z" fill="black"/>
<path d="M4.54425 20.8415C4.12497 20.8406 3.71662 20.7057 3.37938 20.4568C2.67845 19.9592 2.38677 19.0609 2.66158 18.2465L3.71161 15.0258C3.72619 14.9807 3.71024 14.931 3.67151 14.9032L0.929313 12.9079C0.237042 12.4044 -0.0528088 11.5125 0.211977 10.6981C0.476306 9.88365 1.23511 9.3322 2.09145 9.3322H5.48034C5.52819 9.33266 5.57058 9.30212 5.58471 9.25655L6.63291 6.03173C6.89815 5.21777 7.65696 4.66678 8.51284 4.66678C9.36872 4.66678 10.1275 5.21777 10.3928 6.03173L11.441 9.25564C11.4546 9.30167 11.4975 9.33266 11.5453 9.3322H14.9342C15.7906 9.3322 16.5494 9.88365 16.8137 10.6981C17.0785 11.5125 16.7886 12.4044 16.0964 12.9079L13.3542 14.9004C13.3154 14.9287 13.2995 14.9784 13.3141 15.0239L14.3614 18.2465C14.6257 19.0609 14.3358 19.9532 13.6431 20.4564C12.9504 20.96 12.0125 20.96 11.3193 20.4568L8.5771 18.4652C8.53882 18.4361 8.48595 18.4361 8.44767 18.4652L5.70639 20.4568C5.3696 20.7052 4.96262 20.8397 4.54425 20.8415ZM2.09145 11.1989C2.04178 11.1921 1.99529 11.2258 1.98663 11.2755C1.96567 11.3201 1.98299 11.3739 2.02719 11.3976L4.76938 13.3906C5.46302 13.8928 5.75287 14.7856 5.48672 15.5995L4.43988 18.8235C4.4253 18.8686 4.44125 18.9183 4.47953 18.9461C4.51827 18.9739 4.57023 18.9743 4.60851 18.9465L7.3507 16.9549C8.04297 16.4495 8.98271 16.4495 9.67498 16.9549L12.4172 18.9456C12.4559 18.9734 12.5079 18.9729 12.5461 18.9451C12.5844 18.9173 12.6004 18.8677 12.5863 18.8225L11.539 15.5986C11.2724 14.7842 11.5631 13.8914 12.2577 13.3897L14.9989 11.3967C15.0427 11.373 15.0605 11.3192 15.039 11.2746C15.0299 11.2253 14.9839 11.1921 14.9342 11.1989H11.5453C10.6881 11.2007 9.92792 10.6484 9.6645 9.8326L8.6172 6.60961C8.59761 6.54808 8.43081 6.54808 8.40848 6.60961L7.36118 9.83352C7.09731 10.6488 6.33713 11.2003 5.48034 11.1989H2.09145Z" fill="black"/>
<path d="M47.5526 30.9608C46.2948 29.6974 44.3191 29.5019 42.838 30.4941C42.4561 29.4044 41.5911 28.5531 40.4955 28.188C39.4003 27.8225 38.1976 27.9852 37.2378 28.6274C36.8696 27.5792 36.0529 26.7493 35.0106 26.3642C33.9688 25.9786 32.8089 26.0775 31.8469 26.634V20.5325C31.8455 19.4952 31.4135 18.5054 30.6537 17.799C29.8945 17.093 28.8754 16.7339 27.8409 16.8082C25.8516 17.0023 24.3454 18.6918 24.38 20.6902V35.2133L22.5712 32.081C21.2819 29.8474 18.4258 29.0831 16.1935 30.3738C15.5505 30.7456 15.082 31.3586 14.8924 32.0769C14.7028 32.7956 14.8076 33.5598 15.1836 34.2006L23.9133 49.0933C24.1553 49.5076 24.287 49.977 24.2962 50.4569L24.38 55.0845C24.3896 55.5931 24.8048 56.0001 25.3134 56.0001H25.3311C25.8466 55.9905 26.2568 55.5644 26.2467 55.0489L26.1611 50.425C26.1456 49.6252 25.9254 48.8427 25.5216 48.1522L16.7947 33.2531C16.6712 33.0417 16.6365 32.7896 16.699 32.5527C16.7619 32.3157 16.9159 32.1133 17.1278 31.9903C17.7713 31.6184 18.5361 31.5181 19.2538 31.7104C19.9716 31.9032 20.5837 32.3731 20.9547 33.0171L24.5012 39.165C24.7113 39.5355 25.1447 39.7169 25.5558 39.6062C25.9669 39.4959 26.2508 39.1213 26.2467 38.6956V20.6902C26.2217 19.6739 26.9673 18.8025 27.9754 18.6703C28.4931 18.6321 29.0035 18.8107 29.3841 19.1644C29.7641 19.5176 29.9802 20.0134 29.9802 20.5325V34.5329C29.9802 35.0483 30.3981 35.4662 30.9135 35.4662C31.429 35.4662 31.8469 35.0483 31.8469 34.5329V29.8661C31.8469 28.8352 32.6827 27.9994 33.7136 27.9994C34.7445 27.9994 35.5803 28.8352 35.5803 29.8661V34.5329C35.5803 35.0483 35.9982 35.4662 36.5137 35.4662C37.0291 35.4662 37.447 35.0483 37.447 34.5329V31.7328C37.447 30.7019 38.2828 29.8661 39.3137 29.8661C40.3446 29.8661 41.1804 30.7019 41.1804 31.7328V34.5329C41.1804 35.0483 41.5984 35.4662 42.1138 35.4662C42.6292 35.4662 43.0472 35.0483 43.0472 34.5329V33.5995C43.0472 32.5686 43.883 31.7328 44.9139 31.7328C45.9448 31.7328 46.7806 32.5686 46.7806 33.5995V45.9469C46.781 46.3033 46.7131 46.6565 46.5801 46.9873L45.247 50.3197C45.0264 50.8707 44.9134 51.4591 44.9139 52.0529V55.0667C44.9139 55.5822 45.3318 56.0001 45.8472 56.0001C46.3627 56.0001 46.7806 55.5822 46.7806 55.0667V52.0529C46.7801 51.6961 46.848 51.3429 46.9811 51.012L48.3142 47.6801C48.5347 47.1291 48.6478 46.5407 48.6473 45.9469V33.5995C48.6496 32.6092 48.2554 31.659 47.5526 30.9608Z" fill="black"/>
</g>
<defs>
<clipPath id="clip0">
<rect width="56" height="56" fill="white"/>
</clipPath>
</defs>
</svg>
