<svg width="39" height="25" viewBox="0 0 39 25" fill="none" xmlns="http://www.w3.org/2000/svg">
<path d="M2.58379 11.9393C1.998 12.5251 1.998 13.4749 2.58379 14.0607L12.1297 23.6066C12.7155 24.1924 13.6653 24.1924 14.251 23.6066C14.8368 23.0208 14.8368 22.0711 14.251 21.4853L5.76577 13L14.251 4.51472C14.8368 3.92893 14.8368 2.97918 14.251 2.3934C13.6653 1.80761 12.7155 1.80761 12.1297 2.3934L2.58379 11.9393ZM39 11.5L3.64445 11.5L3.64445 14.5L39 14.5L39 11.5Z" fill="black"/>
<path d="M0.939317 10.5837C0.353531 11.1695 0.35353 12.1193 0.939317 12.7051L10.4853 22.251C11.071 22.8368 12.0208 22.8368 12.6066 22.251C13.1924 21.6652 13.1924 20.7155 12.6066 20.1297L4.1213 11.6444L12.6066 3.15913C13.1924 2.57334 13.1924 1.62359 12.6066 1.03781C12.0208 0.452019 11.071 0.452019 10.4853 1.03781L0.939317 10.5837ZM37.3555 10.1444L1.99998 10.1444L1.99998 13.1444L37.3555 13.1444L37.3555 10.1444Z" fill="white"/>
</svg>
