<svg width="58" height="58" viewBox="0 0 58 58" fill="none" xmlns="http://www.w3.org/2000/svg">
<path d="M25.375 47.125H27.1875V48.9375H25.375V47.125Z" fill="black"/>
<path d="M30.8125 47.125H32.625V48.9375H30.8125V47.125Z" fill="black"/>
<path d="M6.34375 13.5938H8.15625V15.4062H6.34375V13.5938Z" fill="black"/>
<path d="M6.34375 17.2188H8.15625V19.0312H6.34375V17.2188Z" fill="black"/>
<path d="M6.34375 20.8438H8.15625V22.6562H6.34375V20.8438Z" fill="black"/>
<path d="M6.34375 24.4688H8.15625V26.2812H6.34375V24.4688Z" fill="black"/>
<path d="M6.34375 28.0938H8.15625V29.9062H6.34375V28.0938Z" fill="black"/>
<path d="M6.34375 31.7188H8.15625V33.5312H6.34375V31.7188Z" fill="black"/>
<path d="M6.34375 35.3438H8.15625V37.1562H6.34375V35.3438Z" fill="black"/>
<path d="M6.34375 38.9688H8.15625V40.7812H6.34375V38.9688Z" fill="black"/>
<path d="M6.34375 42.5938H8.15625V44.4062H6.34375V42.5938Z" fill="black"/>
<path d="M6.34375 46.2188H8.15625V48.0312H6.34375V46.2188Z" fill="black"/>
<path d="M49.8438 13.5938H51.6562V15.4062H49.8438V13.5938Z" fill="black"/>
<path d="M49.8438 17.2188H51.6562V19.0312H49.8438V17.2188Z" fill="black"/>
<path d="M49.8438 20.8438H51.6562V22.6562H49.8438V20.8438Z" fill="black"/>
<path d="M49.8438 24.4688H51.6562V26.2812H49.8438V24.4688Z" fill="black"/>
<path d="M49.8438 28.0938H51.6562V29.9062H49.8438V28.0938Z" fill="black"/>
<path d="M49.8438 31.7188H51.6562V33.5312H49.8438V31.7188Z" fill="black"/>
<path d="M49.8438 35.3438H51.6562V37.1562H49.8438V35.3438Z" fill="black"/>
<path d="M49.8438 38.9688H51.6562V40.7812H49.8438V38.9688Z" fill="black"/>
<path d="M55.2812 50.75V10.875C55.2812 10.6346 55.1858 10.4041 55.0158 10.2342C54.8459 10.0642 54.6154 9.96875 54.375 9.96875H48.0312V2.71875C48.0312 2.4784 47.9358 2.24789 47.7658 2.07793C47.5959 1.90798 47.3654 1.8125 47.125 1.8125H10.875C10.6346 1.8125 10.4041 1.90798 10.2342 2.07793C10.0642 2.24789 9.96875 2.4784 9.96875 2.71875V9.96875H3.625C3.38465 9.96875 3.15414 10.0642 2.98418 10.2342C2.81423 10.4041 2.71875 10.6346 2.71875 10.875V50.75C2.4784 50.75 2.24789 50.8455 2.07793 51.0154C1.90798 51.1854 1.8125 51.4159 1.8125 51.6562V55.2812C1.8125 55.5216 1.90798 55.7521 2.07793 55.9221C2.24789 56.092 2.4784 56.1875 2.71875 56.1875H55.2812C55.5216 56.1875 55.7521 56.092 55.9221 55.9221C56.092 55.7521 56.1875 55.5216 56.1875 55.2812V51.6562C56.1875 51.4159 56.092 51.1854 55.9221 51.0154C55.7521 50.8455 55.5216 50.75 55.2812 50.75ZM9.96875 54.375H3.625V52.5625H9.96875V54.375ZM9.96875 50.75H4.53125V11.7812H9.96875V50.75ZM28.0938 54.375H23.5625V43.5H28.0938V54.375ZM21.75 41.6875C21.75 39.7647 22.5138 37.9206 23.8735 36.561C25.2331 35.2013 27.0772 34.4375 29 34.4375C30.9228 34.4375 32.7669 35.2013 34.1265 36.561C35.4862 37.9206 36.25 39.7647 36.25 41.6875H21.75ZM34.4375 54.375H29.9062V43.5H34.4375V54.375ZM46.2188 54.375H36.25V43.5H37.1562C37.3966 43.5 37.6271 43.4045 37.7971 43.2346C37.967 43.0646 38.0625 42.8341 38.0625 42.5938V41.6875C38.0625 39.284 37.1077 36.9789 35.4082 35.2793C33.7086 33.5798 31.4035 32.625 29 32.625C26.5965 32.625 24.2914 33.5798 22.5918 35.2793C20.8923 36.9789 19.9375 39.284 19.9375 41.6875V42.5938C19.9375 42.8341 20.033 43.0646 20.2029 43.2346C20.3729 43.4045 20.6034 43.5 20.8438 43.5H21.75V54.375H11.7812V3.625H46.2188V54.375ZM48.0312 11.7812H53.4688V50.75H48.0312V11.7812ZM54.375 54.375H48.0312V52.5625H54.375V54.375Z" fill="black"/>
<path d="M43.5 14.5V10.875C43.5 9.91359 43.1181 8.99156 42.4383 8.31174C41.7584 7.63192 40.8364 7.25 39.875 7.25C38.9136 7.25 37.9916 7.63192 37.3117 8.31174C36.6319 8.99156 36.25 9.91359 36.25 10.875V14.5H35.3438V16.3125H44.4062V14.5H43.5ZM41.6875 14.5H38.0625V10.875C38.0625 10.3943 38.2535 9.93328 38.5934 9.59337C38.9333 9.25346 39.3943 9.0625 39.875 9.0625C40.3557 9.0625 40.8167 9.25346 41.1566 9.59337C41.4965 9.93328 41.6875 10.3943 41.6875 10.875V14.5Z" fill="black"/>
<path d="M43.5 27.1875V23.5625C43.5 22.6011 43.1181 21.6791 42.4383 20.9992C41.7584 20.3194 40.8364 19.9375 39.875 19.9375C38.9136 19.9375 37.9916 20.3194 37.3117 20.9992C36.6319 21.6791 36.25 22.6011 36.25 23.5625V27.1875H35.3438V29H44.4062V27.1875H43.5ZM41.6875 27.1875H38.0625V23.5625C38.0625 23.0818 38.2535 22.6208 38.5934 22.2809C38.9333 21.941 39.3943 21.75 39.875 21.75C40.3557 21.75 40.8167 21.941 41.1566 22.2809C41.4965 22.6208 41.6875 23.0818 41.6875 23.5625V27.1875Z" fill="black"/>
<path d="M32.625 27.1875V23.5625C32.625 22.6011 32.2431 21.6791 31.5633 20.9992C30.8834 20.3194 29.9614 19.9375 29 19.9375C28.0386 19.9375 27.1166 20.3194 26.4367 20.9992C25.7569 21.6791 25.375 22.6011 25.375 23.5625V27.1875H24.4688V29H33.5312V27.1875H32.625ZM30.8125 27.1875H27.1875V23.5625C27.1875 23.0818 27.3785 22.6208 27.7184 22.2809C28.0583 21.941 28.5193 21.75 29 21.75C29.4807 21.75 29.9417 21.941 30.2816 22.2809C30.6215 22.6208 30.8125 23.0818 30.8125 23.5625V27.1875Z" fill="black"/>
<path d="M21.75 27.1875V23.5625C21.75 22.6011 21.3681 21.6791 20.6883 20.9992C20.0084 20.3194 19.0864 19.9375 18.125 19.9375C17.1636 19.9375 16.2416 20.3194 15.5617 20.9992C14.8819 21.6791 14.5 22.6011 14.5 23.5625V27.1875H13.5938V29H22.6562V27.1875H21.75ZM19.9375 27.1875H16.3125V23.5625C16.3125 23.0818 16.5035 22.6208 16.8434 22.2809C17.1833 21.941 17.6443 21.75 18.125 21.75C18.6057 21.75 19.0667 21.941 19.4066 22.2809C19.7465 22.6208 19.9375 23.0818 19.9375 23.5625V27.1875Z" fill="black"/>
<path d="M32.625 14.5V10.875C32.625 9.91359 32.2431 8.99156 31.5633 8.31174C30.8834 7.63192 29.9614 7.25 29 7.25C28.0386 7.25 27.1166 7.63192 26.4367 8.31174C25.7569 8.99156 25.375 9.91359 25.375 10.875V14.5H24.4688V16.3125H33.5312V14.5H32.625ZM30.8125 14.5H27.1875V10.875C27.1875 10.3943 27.3785 9.93328 27.7184 9.59337C28.0583 9.25346 28.5193 9.0625 29 9.0625C29.4807 9.0625 29.9417 9.25346 30.2816 9.59337C30.6215 9.93328 30.8125 10.3943 30.8125 10.875V14.5Z" fill="black"/>
<path d="M21.75 14.5V10.875C21.75 9.91359 21.3681 8.99156 20.6883 8.31174C20.0084 7.63192 19.0864 7.25 18.125 7.25C17.1636 7.25 16.2416 7.63192 15.5617 8.31174C14.8819 8.99156 14.5 9.91359 14.5 10.875V14.5H13.5938V16.3125H22.6562V14.5H21.75ZM19.9375 14.5H16.3125V10.875C16.3125 10.3943 16.5035 9.93328 16.8434 9.59337C17.1833 9.25346 17.6443 9.0625 18.125 9.0625C18.6057 9.0625 19.0667 9.25346 19.4066 9.59337C19.7465 9.93328 19.9375 10.3943 19.9375 10.875V14.5Z" fill="black"/>
<path d="M49.8438 42.5938H51.6562V44.4062H49.8438V42.5938Z" fill="black"/>
<path d="M49.8438 46.2188H51.6562V48.0312H49.8438V46.2188Z" fill="black"/>
</svg>
