<svg width="20" height="20" viewBox="0 0 20 20" fill="none" xmlns="http://www.w3.org/2000/svg">
<path d="M13.264 9.88458C15.0679 8.48875 15.7843 6.10024 15.0467 3.94204C14.3092 1.78367 12.2808 0.333313 10 0.333313C7.71924 0.333313 5.69076 1.78367 4.95329 3.94204C4.21566 6.10024 4.93213 8.48875 6.736 9.88458C2.70736 11.2793 0.00390625 15.0722 0 19.3356V19.6689H20V19.3356C19.9961 15.0722 17.2926 11.2793 13.264 9.88458ZM5.33333 5.66892C5.33252 3.40428 6.95768 1.46596 9.18783 1.07176C11.4178 0.677714 13.609 1.94155 14.3844 4.06915C15.16 6.19692 14.2961 8.5742 12.3353 9.7075C12.2464 9.75893 12.1567 9.80694 12.0664 9.85187C11.0465 10.3431 9.88542 10.4557 8.79037 10.1699C8.39551 10.0677 8.0166 9.91193 7.66406 9.70717C6.2238 8.87189 5.3361 7.3338 5.33333 5.66892ZM15.6667 19.0023V15.3356H15V19.0023H5V15.3356H4.33333V19.0023H0.672689C0.819336 14.9547 3.5568 11.4624 7.45231 10.3535C7.48307 10.3703 7.51465 10.3843 7.54541 10.4005C7.59701 10.4272 7.6486 10.4539 7.70133 10.4788C7.74072 10.4979 7.78027 10.5156 7.82031 10.5332C7.89486 10.5667 7.96989 10.5986 8.04574 10.6289L8.06559 10.6365C9.3099 11.1247 10.6927 11.1247 11.937 10.6365L11.9526 10.6308C12.0299 10.6002 12.1063 10.5675 12.182 10.5335C12.2207 10.5163 12.259 10.5001 12.2974 10.4809C12.3503 10.4552 12.403 10.4282 12.4554 10.4009C12.486 10.3852 12.5173 10.3709 12.5477 10.3546C16.4427 11.4634 19.1803 14.9551 19.3273 19.0023H15.6667Z" fill="#FF1E1E"/>
</svg>
