<svg width="39" height="25" viewBox="0 0 39 25" fill="none" xmlns="http://www.w3.org/2000/svg">
<path d="M36.4162 14.7051C37.002 14.1193 37.002 13.1695 36.4162 12.5837L26.8703 3.03781C26.2845 2.45202 25.3347 2.45202 24.749 3.03781C24.1632 3.62359 24.1632 4.57334 24.749 5.15913L33.2342 13.6444L24.749 22.1297C24.1632 22.7155 24.1632 23.6652 24.749 24.251C25.3347 24.8368 26.2845 24.8368 26.8703 24.251L36.4162 14.7051ZM0 15.1444L35.3556 15.1444V12.1444L0 12.1444L0 15.1444Z" fill="black"/>
<path d="M38.0607 13.0607C38.6465 12.4749 38.6465 11.5251 38.0607 10.9393L28.5147 1.3934C27.929 0.807612 26.9792 0.807612 26.3934 1.3934C25.8076 1.97918 25.8076 2.92893 26.3934 3.51472L34.8787 12L26.3934 20.4853C25.8076 21.0711 25.8076 22.0208 26.3934 22.6066C26.9792 23.1924 27.929 23.1924 28.5147 22.6066L38.0607 13.0607ZM1.64447 13.5L37 13.5V10.5L1.64447 10.5L1.64447 13.5Z" fill="white"/>
</svg>
