<svg width="54" height="54" viewBox="0 0 54 54" fill="none" xmlns="http://www.w3.org/2000/svg">
<path d="M50.625 30.5H48.875V8.625C48.875 6.53642 48.0453 4.53338 46.5685 3.05653C45.0916 1.57968 43.0886 0.75 41 0.75C38.9114 0.75 36.9084 1.57968 35.4315 3.05653C33.9547 4.53338 33.125 6.53642 33.125 8.625V9.57875C31.9031 9.78652 30.7939 10.4194 29.9934 11.3656C29.1929 12.3119 28.7525 13.5106 28.75 14.75V17.375C28.75 17.6071 28.8422 17.8296 29.0063 17.9937C29.1704 18.1578 29.3929 18.25 29.625 18.25H38.375C38.6071 18.25 38.8296 18.1578 38.9937 17.9937C39.1578 17.8296 39.25 17.6071 39.25 17.375V14.75C39.2475 13.5106 38.8071 12.3119 38.0066 11.3656C37.2061 10.4194 36.0969 9.78652 34.875 9.57875V8.625C34.875 7.00055 35.5203 5.44263 36.669 4.29397C37.8176 3.14531 39.3755 2.5 41 2.5C42.6245 2.5 44.1824 3.14531 45.331 4.29397C46.4797 5.44263 47.125 7.00055 47.125 8.625V30.5H18.635C18.9533 29.9716 19.1226 29.3669 19.125 28.75C19.1227 28.0792 18.9276 27.4232 18.5631 26.8601C18.1985 26.2969 17.6798 25.8505 17.0688 25.5738C17.2691 25.2059 17.3743 24.7939 17.375 24.375C17.3729 23.6794 17.0957 23.013 16.6039 22.5211C16.112 22.0293 15.4456 21.7521 14.75 21.75H7.75C7.05445 21.7521 6.38797 22.0293 5.89614 22.5211C5.40431 23.013 5.12708 23.6794 5.125 24.375C5.12566 24.7939 5.23093 25.2059 5.43125 25.5738C4.82016 25.8505 4.30147 26.2969 3.93692 26.8601C3.57237 27.4232 3.37732 28.0792 3.375 28.75C3.37741 29.3669 3.54673 29.9716 3.865 30.5H3.375C2.67881 30.5 2.01113 30.7766 1.51884 31.2688C1.02656 31.7611 0.75 32.4288 0.75 33.125C0.75 33.8212 1.02656 34.4889 1.51884 34.9812C2.01113 35.4734 2.67881 35.75 3.375 35.75V41C3.37824 43.0876 4.20897 45.0887 5.68511 46.5649C7.16126 48.041 9.16241 48.8718 11.25 48.875V50.625C11.25 51.3212 11.5266 51.9889 12.0188 52.4812C12.5111 52.9734 13.1788 53.25 13.875 53.25C14.5712 53.25 15.2389 52.9734 15.7312 52.4812C16.2234 51.9889 16.5 51.3212 16.5 50.625V48.875H37.5V50.625C37.5 51.3212 37.7766 51.9889 38.2688 52.4812C38.7611 52.9734 39.4288 53.25 40.125 53.25C40.8212 53.25 41.4889 52.9734 41.9812 52.4812C42.4734 51.9889 42.75 51.3212 42.75 50.625V48.875C44.8376 48.8718 46.8387 48.041 48.3149 46.5649C49.791 45.0887 50.6218 43.0876 50.625 41V35.75C51.3212 35.75 51.9889 35.4734 52.4812 34.9812C52.9734 34.4889 53.25 33.8212 53.25 33.125C53.25 32.4288 52.9734 31.7611 52.4812 31.2688C51.9889 30.7766 51.3212 30.5 50.625 30.5ZM37.5 14.75V16.5H30.5V14.75C30.5 13.8217 30.8687 12.9315 31.5251 12.2751C32.1815 11.6187 33.0717 11.25 34 11.25C34.9283 11.25 35.8185 11.6187 36.4749 12.2751C37.1312 12.9315 37.5 13.8217 37.5 14.75ZM7.75 23.5H14.75C14.9821 23.5 15.2046 23.5922 15.3687 23.7563C15.5328 23.9204 15.625 24.1429 15.625 24.375C15.625 24.6071 15.5328 24.8296 15.3687 24.9937C15.2046 25.1578 14.9821 25.25 14.75 25.25H7.75C7.51794 25.25 7.29538 25.1578 7.13128 24.9937C6.96719 24.8296 6.875 24.6071 6.875 24.375C6.875 24.1429 6.96719 23.9204 7.13128 23.7563C7.29538 23.5922 7.51794 23.5 7.75 23.5ZM6.875 27H15.625C16.0891 27 16.5342 27.1844 16.8624 27.5126C17.1906 27.8407 17.375 28.2859 17.375 28.75C17.375 29.2141 17.1906 29.6593 16.8624 29.9874C16.5342 30.3156 16.0891 30.5 15.625 30.5H6.875C6.41087 30.5 5.96575 30.3156 5.63756 29.9874C5.30937 29.6593 5.125 29.2141 5.125 28.75C5.125 28.2859 5.30937 27.8407 5.63756 27.5126C5.96575 27.1844 6.41087 27 6.875 27ZM14.75 50.625C14.75 50.8571 14.6578 51.0796 14.4937 51.2437C14.3296 51.4078 14.1071 51.5 13.875 51.5C13.6429 51.5 13.4204 51.4078 13.2563 51.2437C13.0922 51.0796 13 50.8571 13 50.625V48.875H14.75V50.625ZM41 50.625C41 50.8571 40.9078 51.0796 40.7437 51.2437C40.5796 51.4078 40.3571 51.5 40.125 51.5C39.8929 51.5 39.6704 51.4078 39.5063 51.2437C39.3422 51.0796 39.25 50.8571 39.25 50.625V48.875H41V50.625ZM48.875 41C48.8731 42.6239 48.2272 44.1807 47.079 45.329C45.9307 46.4772 44.3739 47.1231 42.75 47.125H11.25C9.62612 47.1231 8.06928 46.4772 6.92102 45.329C5.77276 44.1807 5.12685 42.6239 5.125 41V35.75H48.875V41ZM50.625 34H3.375C3.14294 34 2.92038 33.9078 2.75628 33.7437C2.59219 33.5796 2.5 33.3571 2.5 33.125C2.5 32.8929 2.59219 32.6704 2.75628 32.5063C2.92038 32.3422 3.14294 32.25 3.375 32.25H50.625C50.8571 32.25 51.0796 32.3422 51.2437 32.5063C51.4078 32.6704 51.5 32.8929 51.5 33.125C51.5 33.3571 51.4078 33.5796 51.2437 33.7437C51.0796 33.9078 50.8571 34 50.625 34Z" fill="black"/>
</svg>
