<svg width="49" height="28" viewBox="0 0 49 28" fill="none" xmlns="http://www.w3.org/2000/svg">
<path d="M2.85148 13.4845C2.16807 14.1679 2.16807 15.2759 2.85148 15.9594L13.9884 27.0963C14.6718 27.7797 15.7799 27.7797 16.4633 27.0963C17.1467 26.4129 17.1467 25.3048 16.4633 24.6214L6.56379 14.7219L16.4633 4.82243C17.1467 4.13901 17.1467 3.03098 16.4633 2.34756C15.7799 1.66414 14.6718 1.66414 13.9884 2.34756L2.85148 13.4845ZM49 12.9719L4.08892 12.9719L4.08892 16.4719L49 16.4719L49 12.9719Z" fill="black"/>
<path d="M0.762555 11.7626C0.0791379 12.446 0.079138 13.554 0.762556 14.2374L11.8995 25.3744C12.5829 26.0578 13.6909 26.0578 14.3744 25.3744C15.0578 24.691 15.0578 23.5829 14.3744 22.8995L4.47487 13L14.3744 3.10051C15.0578 2.41709 15.0578 1.30905 14.3744 0.625634C13.6909 -0.0577833 12.5829 -0.0577832 11.8995 0.625634L0.762555 11.7626ZM46.9111 11.25L1.99999 11.25L1.99999 14.75L46.9111 14.75L46.9111 11.25Z" fill="white"/>
</svg>
