<svg width="49" height="28" viewBox="0 0 49 28" fill="none" xmlns="http://www.w3.org/2000/svg">
<path d="M46.1485 16.3263C46.832 15.6429 46.832 14.5348 46.1485 13.8514L35.0116 2.7145C34.3282 2.03108 33.2202 2.03108 32.5367 2.7145C31.8533 3.39792 31.8533 4.50595 32.5367 5.18937L42.4362 15.0889L32.5367 24.9884C31.8533 25.6718 31.8533 26.7798 32.5367 27.4632C33.2202 28.1467 34.3282 28.1467 35.0116 27.4632L46.1485 16.3263ZM0 16.8389H44.9111V13.3389H0V16.8389Z" fill="black"/>
<path d="M48.2374 14.2374C48.9209 13.554 48.9209 12.446 48.2374 11.7626L37.1005 0.625631C36.4171 -0.0577862 35.3091 -0.0577862 34.6256 0.625631C33.9422 1.30905 33.9422 2.41709 34.6256 3.10051L44.5251 13L34.6256 22.8995C33.9422 23.5829 33.9422 24.691 34.6256 25.3744C35.3091 26.0578 36.4171 26.0578 37.1005 25.3744L48.2374 14.2374ZM2.0889 14.75H47V11.25H2.0889V14.75Z" fill="white"/>
</svg>
